<svg width="135" height="67" viewBox="0 0 135 67" fill="none" xmlns="http://www.w3.org/2000/svg">
<rect width="134.625" height="66.637" rx="8" fill="#EC0C0C"/>
<path fill-rule="evenodd" clip-rule="evenodd" d="M35.0447 12.1318C34.2749 10.7984 32.3504 10.7984 31.5806 12.1318L8.27093 52.5052C7.50113 53.8386 8.46338 55.5052 10.003 55.5052L56.6223 55.5052C58.1619 55.5052 59.1241 53.8386 58.3543 52.5052L35.0447 12.1318ZM37.4677 25.5189C36.9321 24.0755 35.0348 23.7532 34.0526 24.9388L18.454 43.7666C17.4718 44.9522 18.1413 46.7564 19.6592 47.0143L43.7638 51.1091C45.2817 51.3669 46.5095 49.885 45.9738 48.4416L37.4677 25.5189Z" fill="white"/>
<path d="M80.5078 23.293C80.5078 27.7234 77.7514 30.4352 73.1982 30.4352C68.2432 30.4352 65.2636 27.2324 65.2636 21.9315C65.2636 16.6975 68.2544 13.4612 73.0866 13.4612C77.0148 13.4612 79.9387 15.749 80.3404 19.1527H76.3006C75.8988 17.7354 74.6936 16.8761 73.0866 16.8761C70.7988 16.8761 69.4373 18.7509 69.4373 21.8868C69.4373 25.0785 70.9439 27.0203 73.2874 27.0203C75.1511 27.0203 76.4457 25.9267 76.5461 24.2973L76.5573 24.0295H73.6111V21.2172H80.5078V23.293ZM85.5654 27.4332C86.8153 27.4332 87.7862 26.6074 87.7862 25.5361V24.7214L85.6994 24.8553C84.5276 24.9446 83.9138 25.4022 83.9138 26.1499C83.9138 26.9422 84.5722 27.4332 85.5654 27.4332ZM84.1258 30.1897C81.7376 30.1897 80.1083 28.7055 80.1083 26.4289C80.1083 24.1634 81.8715 22.8466 85.0744 22.6569L87.7862 22.5006V21.5297C87.7862 20.6927 87.1613 20.1905 86.0676 20.1905C85.0298 20.1905 84.3602 20.5365 84.1035 21.1949H80.5547C80.7333 18.7844 82.9317 17.289 86.2908 17.289C89.7169 17.289 91.6698 18.8514 91.6698 21.5297V30H87.8309V28.4599H87.6188C87.0608 29.5201 85.6994 30.1897 84.1258 30.1897ZM92.3863 30V17.5792H96.2253V19.6326H96.4373C96.9172 18.1929 98.234 17.289 99.8634 17.289C101.638 17.289 102.843 18.1371 103.312 19.6326H103.524C104.037 18.2153 105.488 17.289 107.24 17.289C109.684 17.289 111.291 18.963 111.291 21.5074V30H107.352V22.5118C107.352 21.1726 106.749 20.5142 105.555 20.5142C104.428 20.5142 103.725 21.3288 103.725 22.5453V30H99.9526V22.4448C99.9526 21.1949 99.3165 20.5142 98.1782 20.5142C97.0734 20.5142 96.3257 21.3623 96.3257 22.6122V30H92.3863ZM117.565 20.0901C116.27 20.0901 115.367 20.9941 115.266 22.4002H119.775C119.708 20.9494 118.882 20.0901 117.565 20.0901ZM119.92 26.3396H123.524C123.089 28.7613 120.813 30.2902 117.598 30.2902C113.637 30.2902 111.36 27.9466 111.36 23.8733C111.36 19.7776 113.693 17.289 117.543 17.289C121.37 17.289 123.602 19.6102 123.602 23.572V24.6656H115.244V24.8665C115.277 26.4847 116.204 27.489 117.71 27.489C118.86 27.489 119.652 27.065 119.92 26.3396Z" fill="white"/>
<path d="M64.1653 50V37.5792H68.0043V39.6214H68.2163C68.5176 38.3715 69.7229 37.3894 71.2295 37.3894C71.7205 37.3894 72.3231 37.4564 72.6244 37.5792V40.9383C72.3231 40.8155 71.4638 40.7151 70.9616 40.7151C69.2542 40.7151 68.1047 41.6971 68.1047 43.4269V50H64.1653ZM77.7378 40.0901C76.4433 40.0901 75.5394 40.9941 75.4389 42.4002H79.9475C79.8805 40.9494 79.0547 40.0901 77.7378 40.0901ZM80.0926 46.3396H83.6972C83.2619 48.7613 80.9853 50.2902 77.7713 50.2902C73.8096 50.2902 71.533 47.9466 71.533 43.8733C71.533 39.7776 73.8654 37.289 77.7155 37.289C81.5433 37.289 83.7753 39.6102 83.7753 43.572V44.6656H75.4166V44.8665C75.4501 46.4847 76.3763 47.489 77.8829 47.489C79.0324 47.489 79.8247 47.065 80.0926 46.3396ZM91.701 37.3894C94.8369 37.3894 96.7005 39.7218 96.7005 43.784C96.7005 47.835 94.8815 50.1897 91.7902 50.1897C89.9935 50.1897 88.6767 49.4085 88.0964 48.0917H87.8843V53.7832H83.9449V37.5792H87.7839V39.5991H87.9959C88.6097 38.2153 89.9824 37.3894 91.701 37.3894ZM90.2614 47.0873C91.7679 47.0873 92.6495 45.8486 92.6495 43.784C92.6495 41.7418 91.7568 40.4919 90.2614 40.4919C88.7771 40.4919 87.862 41.7418 87.862 43.7952C87.862 45.8597 88.7659 47.0873 90.2614 47.0873ZM102.595 47.277C104.046 47.277 104.872 45.9936 104.872 43.784C104.872 41.619 104.024 40.3021 102.595 40.3021C101.167 40.3021 100.319 41.619 100.319 43.784C100.319 46.0048 101.144 47.277 102.595 47.277ZM102.595 50.2902C98.6223 50.2902 96.2675 47.8685 96.2675 43.784C96.2675 39.7665 98.6892 37.289 102.595 37.289C106.523 37.289 108.923 39.7442 108.923 43.784C108.923 47.8796 106.579 50.2902 102.595 50.2902ZM109.104 50V37.5792H112.943V39.6214H113.155C113.456 38.3715 114.661 37.3894 116.168 37.3894C116.659 37.3894 117.261 37.4564 117.563 37.5792V40.9383C117.261 40.8155 116.402 40.7151 115.9 40.7151C114.192 40.7151 113.043 41.6971 113.043 43.4269V50H109.104ZM118.781 34.7669H122.721V37.7466H125.254V40.6816H122.721V45.7146C122.721 46.6521 123.201 47.1096 124.227 47.1096C124.685 47.1096 124.93 47.0873 125.22 47.0538V49.8661C124.796 49.9554 124.082 50.0223 123.334 50.0223C120.065 50.0223 118.781 49.0291 118.781 46.5963V40.6816H116.862V37.7466H118.781V34.7669Z" fill="white"/>
</svg>
