<svg width="32" height="33" viewBox="0 0 32 33" fill="none" xmlns="http://www.w3.org/2000/svg">
<g clip-path="url(#clip0_22_47)">
<path d="M20.6667 19.3037H19.6133L19.24 18.9437C20.5467 17.4237 21.3333 15.4503 21.3333 13.3037C21.3333 8.51699 17.4533 4.63699 12.6667 4.63699C7.88 4.63699 4 8.51699 4 13.3037C4 18.0903 7.88 21.9703 12.6667 21.9703C14.8133 21.9703 16.7867 21.1837 18.3067 19.877L18.6667 20.2503V21.3037L25.3333 27.957L27.32 25.9703L20.6667 19.3037ZM12.6667 19.3037C9.34667 19.3037 6.66667 16.6237 6.66667 13.3037C6.66667 9.98366 9.34667 7.30366 12.6667 7.30366C15.9867 7.30366 18.6667 9.98366 18.6667 13.3037C18.6667 16.6237 15.9867 19.3037 12.6667 19.3037Z" fill="#999191"/>
</g>
<defs>
<clipPath id="clip0_22_47">
<rect width="32" height="32" fill="white" transform="translate(0 0.636993)"/>
</clipPath>
</defs>
</svg>
