<svg width="49" height="49" viewBox="0 0 49 49" fill="none" xmlns="http://www.w3.org/2000/svg">
<g clip-path="url(#clip0_19_283)">
<path d="M18.5 42.5H36.5C38.16 42.5 39.58 41.5 40.18 40.06L46.22 25.96C46.4 25.5 46.5 25.02 46.5 24.5V20.5C46.5 18.3 44.7 16.5 42.5 16.5H29.88L31.78 7.36L31.84 6.72C31.84 5.9 31.5 5.14 30.96 4.6L28.84 2.5L15.66 15.68C14.94 16.4 14.5 17.4 14.5 18.5V38.5C14.5 40.7 16.3 42.5 18.5 42.5ZM18.5 18.5L27.18 9.82L24.5 20.5H42.5V24.5L36.5 38.5H18.5V18.5ZM2.5 18.5H10.5V42.5H2.5V18.5Z" fill="white"/>
</g>
<defs>
<clipPath id="clip0_19_283">
<rect width="48" height="48" fill="white" transform="translate(0.5 0.5)"/>
</clipPath>
</defs>
</svg>
