<svg width="48" height="48" viewBox="0 0 48 48" fill="none" xmlns="http://www.w3.org/2000/svg">
<path d="M24 8C24 8 11.4911 7.99994 8.37109 8.83594C6.64909 9.29594 5.29594 10.6511 4.83594 12.3711C3.99994 15.4911 4 24 4 24C4 24 3.99994 32.5089 4.83594 35.6289C5.29594 37.3509 6.65109 38.7041 8.37109 39.1641C11.4911 40.0001 24 40 24 40C24 40 36.5089 40.0001 39.6289 39.1641C41.3489 38.7041 42.7041 37.3489 43.1641 35.6289C44.0001 32.5089 44 24 44 24C44 24 44.0001 15.4911 43.1641 12.3711C42.7041 10.6511 41.3489 9.29594 39.6289 8.83594C36.5089 7.99994 24 8 24 8ZM24 12C29.764 12 36.9818 12.2672 38.5938 12.6992C38.9318 12.7892 39.2088 13.0662 39.3008 13.4062C39.7828 15.2023 40 20.684 40 24C40 27.316 39.7828 32.7957 39.3008 34.5938C39.2108 34.9317 38.9338 35.2088 38.5938 35.3008C36.9837 35.7328 29.764 36 24 36C18.238 36 11.0202 35.7328 9.40625 35.3008C9.06825 35.2108 8.79122 34.9338 8.69922 34.5938C8.21722 32.7978 8 27.316 8 24C8 20.684 8.21722 15.2023 8.69922 13.4023C8.78922 13.0663 9.06625 12.7892 9.40625 12.6992C11.0163 12.2672 18.236 12 24 12ZM20 17.0703V30.9297L32 24L20 17.0703Z" fill="white"/>
</svg>
